# xmcd
#
# Track frame offsets:
#	180
#	19379
#	37860
#	48630
#	62066
#	80600
#	101675
#	129203
#	142386
#	155582
#	176031
#	204714
#
# Disc length: 2929 seconds
#
# Revision: 2
# Processed by: cddbd v1.5.2PL0 Copyright (c) Steve Scherf et al.
# Submitted via: audiograbber 1.83.01
#
DISCID=ae0b6f0c
DTITLE=Various Artist - Crossfire - A Tribute to Stevie Ray
DYEAR=1996
DGENRE=Blues
TTITLE0=Trevor Rabin - Tightrope
TTITLE1=Steve Stevens - Cold Shot
TTITLE2=Steve Morse - Travis Walk
TTITLE3=Albert Lee - Empty Arms
TTITLE4=John Sykes - Pride and Joy
TTITLE5=Scott Hill - Couldn't Stand The Weather
TTITLE6=Mark Kendall - Ain't Gone 'N' Give Up On Love
TTITLE7=Dough Aldrich - The House Is Rockin'
TTITLE8=Richie Kotzen - Honey Bee
TTITLE9=Walter Trout - Say What!
TTITLE10=Stanley Jordan - Riveria Paradise
TTITLE11=Amir Derakh - Dirty Pool
EXTD=Various Artists with vocals by Ron Young and Dante Marchi
EXTT0=Trevor Rabin
EXTT1=Steve Stevens
EXTT2=Steve Morse
EXTT3=Albert Lee
EXTT4=John Sykes
EXTT5=Scott Hill
EXTT6=Mark Kendall
EXTT7=Doug Aldrich
EXTT8=Richie Kotzen
EXTT9=Walter Trout
EXTT10=Stanley Jordan
EXTT11=Amir Derakh
PLAYORDER=
